# xmcd CD database file
#
# Track frame offsets:
#	150
#	26176
#	35885
#	67031
#	93157
#	102376
#	128468
#	147072
#	163868
#	179949
#	202530
#	228922
#	248592
#	258940
#
# Disc length: 3742 seconds
#
# Revision: 0
# Processed by: cddbd v1.5PL3 Copyright (c) Steve Scherf et al.
# Submitted via: CDex 1.51
#
DISCID=be0e9c0e
DTITLE=Vari - La chitarra incantata
DYEAR=1900
DGENRE=New Age
TTITLE0=Ricuerdos della Alhambra
TTITLE1=La finestra sul mare
TTITLE2=Serenata alla luna
TTITLE3=Asturias
TTITLE4=L'incantesimo del tuono
TTITLE5=Capriccio Arabo
TTITLE6=Capriccio N.5 per violino solo di N.
TTITLE7=Il sogno dell'angelo
TTITLE8=Lacrima
TTITLE9=Giochi Proibiti
TTITLE10=Fuga-sonata 1 in Sol Minore
TTITLE11=Il giardino incantato
TTITLE12=Sor studio n.1 OP 35
TTITLE13=Adagio-sonata 1 in Sol Minore
EXTD=
EXTT0=
EXTT1=
EXTT2=
EXTT3=
EXTT4=
EXTT5=
EXTT6=
EXTT7=
EXTT8=
EXTT9=
EXTT10=
EXTT11=
EXTT12=
EXTT13=
PLAYORDER=
